<svg id="Group_50077" data-name="Group 50077" xmlns="http://www.w3.org/2000/svg" width="155.988" height="40.727" viewBox="0 0 155.988 40.727">
  <path id="Path_74226" data-name="Path 74226" d="M21.518,47.538H2.29V32.665H17.512a1.145,1.145,0,0,0,0-2.29H2.29V15.443H20.377a1.145,1.145,0,1,0,0-2.29H1.145A1.145,1.145,0,0,0,0,14.3V48.683a1.145,1.145,0,0,0,1.145,1.145H21.518a1.145,1.145,0,1,0,0-2.29" transform="translate(0 -11.001)" fill="#fff"/>
  <path id="Path_74227" data-name="Path 74227" d="M162.044,40.727c-.459,0-.923-.015-1.38-.046s-.908-.076-1.355-.136-.891-.134-1.328-.223-.871-.191-1.3-.307-.849-.246-1.264-.388-.825-.3-1.227-.467-.8-.349-1.188-.542-.771-.4-1.145-.614-.766-.46-1.135-.707-.732-.507-1.083-.777-.7-.554-1.028-.845-.659-.6-.97-.909-.619-.64-.909-.97-.576-.679-.845-1.028-.532-.717-.777-1.083-.485-.752-.707-1.135-.423-.758-.614-1.145-.375-.788-.542-1.188-.325-.816-.467-1.228-.273-.84-.388-1.264-.219-.863-.307-1.3-.163-.884-.223-1.328-.106-.9-.136-1.355-.046-.92-.046-1.38.015-.923.046-1.38.076-.908.136-1.355.134-.891.223-1.328.191-.869.307-1.3.246-.849.388-1.264.3-.827.467-1.228.35-.8.542-1.188.4-.772.614-1.146.459-.764.707-1.135.506-.731.777-1.083.553-.7.845-1.028.6-.658.909-.97.638-.617.97-.909.678-.576,1.029-.845.716-.532,1.083-.777.751-.485,1.135-.707.759-.423,1.145-.614.789-.375,1.188-.542.815-.325,1.228-.467.84-.273,1.264-.388.864-.22,1.3-.307.884-.164,1.328-.223.9-.106,1.355-.136a20.821,20.821,0,0,1,2.759,0c.452.03.908.076,1.355.136s.89.134,1.328.223.87.191,1.3.307.849.246,1.264.388.824.3,1.227.467a.833.833,0,0,1-.642,1.537c-.37-.154-.749-.3-1.127-.428s-.771-.251-1.16-.356-.793-.2-1.191-.282-.812-.15-1.219-.2-.83-.1-1.245-.125a19.139,19.139,0,0,0-2.537,0c-.415.028-.834.07-1.245.125s-.817.123-1.219.2-.8.175-1.191.282-.779.226-1.16.356-.758.274-1.126.428-.734.321-1.09.5-.708.365-1.051.564-.7.422-1.042.649-.672.466-.995.714-.64.509-.945.776-.605.549-.891.835-.568.587-.835.891-.529.624-.776.944-.489.658-.714.995-.446.691-.649,1.042-.388.7-.564,1.051-.344.723-.5,1.09-.3.747-.428,1.127-.251.771-.356,1.16-.2.794-.282,1.191-.15.811-.2,1.219-.1.83-.125,1.245-.042.846-.042,1.269.014.849.042,1.269.07.834.125,1.245.124.818.2,1.219.175.8.282,1.191.226.779.356,1.16.274.756.428,1.126.321.734.5,1.09.366.709.564,1.051.422.7.649,1.042.465.671.714.995.508.639.776.944.548.6.835.891.586.567.891.835.623.529.945.776.657.488.995.714.689.445,1.042.649.7.388,1.052.564.723.344,1.09.5.748.3,1.126.428.771.251,1.16.356.792.2,1.191.282.811.15,1.219.2.83.1,1.245.125a19.166,19.166,0,0,0,2.537,0c.415-.028.834-.07,1.245-.125s.818-.124,1.219-.2.8-.175,1.191-.282.779-.226,1.16-.356.757-.274,1.127-.428.734-.321,1.09-.5.708-.365,1.051-.564.7-.422,1.042-.649.672-.466.995-.714.639-.508.945-.776.605-.549.891-.835.567-.586.835-.891.528-.622.776-.944.488-.657.714-.995.445-.69.649-1.042.388-.7.564-1.052.344-.723.5-1.09.3-.749.428-1.126.251-.771.356-1.16.2-.794.282-1.19.15-.811.2-1.219.1-.83.125-1.245.042-.846.042-1.269-.014-.849-.042-1.269-.07-.834-.125-1.245-.124-.818-.2-1.219-.175-.8-.282-1.191-.225-.778-.356-1.16-.274-.758-.428-1.126-.321-.734-.5-1.09a.833.833,0,1,1,1.493-.74c.192.388.375.787.542,1.188s.325.814.467,1.227.273.841.388,1.264.22.864.307,1.3.163.884.223,1.328.106.9.136,1.355.046.92.046,1.38-.016.923-.046,1.38-.076.908-.136,1.355-.134.891-.223,1.328-.191.869-.307,1.3-.246.849-.388,1.264-.3.825-.467,1.228-.349.8-.542,1.188-.4.773-.614,1.146-.459.765-.707,1.135-.508.733-.777,1.083-.554.7-.845,1.028-.6.659-.909.97-.638.617-.97.909-.679.577-1.029.845-.716.531-1.083.777-.751.485-1.135.707-.759.423-1.145.614-.788.375-1.188.542-.816.325-1.228.467-.84.273-1.264.388-.863.219-1.3.307-.884.163-1.328.223-.9.106-1.355.136-.92.046-1.38.046" transform="translate(-118.506 0)" fill="#fff"/>
  <path id="Path_74228" data-name="Path 74228" d="M175.979,51.937a.833.833,0,0,1,0-1.666c.361,0,.725-.012,1.084-.036s.712-.06,1.063-.107.7-.105,1.041-.175.683-.15,1.017-.241.666-.193.991-.3.647-.234.962-.366.627-.274.931-.425.605-.312.9-.482.6-.361.89-.554.574-.4.85-.61.546-.434.807-.663.517-.469.762-.714.485-.5.713-.761.451-.532.663-.807.417-.561.61-.85.379-.587.555-.89.331-.595.481-.9.293-.616.425-.931.255-.641.366-.962.214-.658.3-.991.172-.676.241-1.017.128-.692.175-1.041.083-.709.107-1.063.036-.723.036-1.084-.012-.726-.036-1.084-.059-.712-.107-1.064-.105-.7-.175-1.042-.15-.681-.241-1.017-.193-.666-.3-.991-.234-.647-.366-.962-.274-.626-.425-.931-.312-.606-.481-.9-.361-.6-.554-.89-.4-.574-.61-.85-.434-.547-.663-.807-.469-.517-.714-.762-.5-.484-.762-.714-.532-.452-.807-.663-.562-.417-.85-.61-.589-.38-.89-.554-.6-.332-.9-.482-.618-.294-.931-.425-.639-.255-.962-.366-.659-.214-.991-.3-.677-.172-1.017-.241-.693-.128-1.041-.175-.709-.083-1.063-.107a16.359,16.359,0,0,0-2.168,0c-.354.024-.712.06-1.064.107s-.7.106-1.041.175-.683.15-1.017.241-.665.193-.991.3-.647.234-.962.366-.627.274-.931.425-.6.312-.9.482-.6.36-.89.554-.574.4-.85.61-.546.434-.807.663-.518.469-.761.714-.485.5-.714.762-.452.532-.663.807-.417.561-.61.85-.38.589-.554.89-.331.595-.481.9-.293.616-.425.931-.255.639-.366.962-.214.658-.3.991-.172.678-.241,1.017-.128.692-.175,1.042-.083.709-.107,1.064-.036.723-.036,1.084.012.725.036,1.084.06.713.107,1.063.106.7.175,1.041.15.682.241,1.018.193.666.3.991.234.647.366.962.275.628.425.931a.833.833,0,0,1-1.493.741c-.166-.335-.324-.681-.469-1.029s-.282-.706-.4-1.063-.236-.727-.336-1.095-.19-.749-.266-1.124-.141-.764-.193-1.15-.092-.782-.118-1.174-.04-.8-.04-1.2.013-.8.04-1.195.066-.787.118-1.174.117-.773.193-1.15.165-.753.266-1.123.213-.737.337-1.1.259-.715.4-1.063.3-.695.469-1.029.345-.669.532-.992.4-.663.612-.983.44-.634.673-.938.479-.6.732-.891.518-.571.788-.84.552-.534.84-.788.588-.5.891-.732.62-.46.938-.673.651-.42.983-.612.658-.366.992-.532.682-.325,1.029-.469.706-.282,1.063-.4.728-.237,1.095-.336.748-.19,1.124-.266.766-.142,1.15-.193.783-.092,1.174-.118a18.036,18.036,0,0,1,2.39,0c.391.026.786.066,1.174.118s.772.116,1.151.193.754.166,1.124.266.735.213,1.095.336.715.259,1.063.4.693.3,1.029.469.668.345.992.532.663.4.983.612.634.44.938.674.6.479.891.732.571.518.84.788.535.553.787.84.5.587.732.891.46.62.673.938.419.649.612.983.366.657.532.992.325.683.469,1.029.282.706.4,1.063.236.727.336,1.095.19.749.266,1.124.142.766.193,1.15.092.783.118,1.174.04.8.04,1.195-.013.8-.04,1.2-.066.786-.118,1.174-.117.773-.193,1.15-.166.755-.266,1.124-.213.736-.336,1.095-.258.713-.4,1.063-.3.694-.469,1.029-.345.668-.532.992-.4.665-.612.983-.44.634-.673.938-.48.6-.732.891-.517.57-.787.84-.553.535-.841.788-.588.5-.891.732-.619.46-.938.673-.651.42-.983.612-.657.366-.992.532-.683.325-1.029.469-.706.281-1.063.4-.727.237-1.095.336-.748.19-1.124.266-.767.142-1.151.193-.782.092-1.174.118-.8.04-1.2.04" transform="translate(-132.44 -13.935)" fill="#dd0063"/>
  <path id="Path_74229" data-name="Path 74229" d="M189.915,63.147c-.336,0-.676-.011-1.01-.034s-.665-.056-.993-.1-.652-.1-.972-.163-.638-.14-.95-.225-.621-.18-.926-.284-.605-.219-.9-.342-.585-.256-.87-.4-.565-.291-.839-.45-.563-.338-.831-.518-.537-.372-.793-.569-.509-.4-.753-.619-.483-.438-.711-.666-.453-.468-.666-.711-.422-.5-.619-.753-.388-.522-.569-.793-.356-.551-.518-.831-.309-.555-.45-.839-.275-.579-.4-.87-.238-.6-.342-.9-.2-.617-.284-.926-.161-.633-.225-.95-.12-.65-.163-.973-.078-.661-.1-.992-.033-.675-.033-1.01.011-.675.033-1.01.056-.665.1-.993.1-.65.163-.972.14-.637.225-.95a.833.833,0,0,1,1.608.437c-.076.278-.143.562-.2.844s-.107.577-.145.864-.069.588-.089.882-.03.6-.03.9.01.6.03.9.049.591.089.882.087.578.145.864.124.565.2.844.159.551.252.822.195.537.3.8.227.519.352.773.259.5.4.745.3.5.46.738.331.477.506.7.36.453.55.669.389.428.592.632.415.4.632.592.442.376.669.55.465.346.7.506.487.314.738.46.494.275.745.4.513.244.772.352.529.211.8.3.547.178.822.253.561.143.844.2.575.106.864.145.588.069.882.088a13.566,13.566,0,0,0,1.8,0c.295-.02.591-.049.882-.088s.579-.087.864-.145.566-.124.844-.2.552-.16.822-.253.537-.194.8-.3.52-.227.772-.352.5-.259.745-.4.5-.3.738-.46.476-.33.7-.506.453-.36.669-.55.429-.389.632-.592.4-.416.592-.632.375-.441.55-.669.346-.466.506-.705.316-.489.459-.738.274-.493.4-.745.244-.514.352-.772.211-.531.3-.8.178-.547.252-.822.142-.56.2-.844.106-.574.145-.864.069-.589.088-.882.03-.6.03-.9-.01-.6-.03-.9-.049-.591-.088-.882-.087-.578-.145-.864-.124-.565-.2-.844-.159-.551-.252-.822-.194-.538-.3-.8-.227-.519-.352-.773-.259-.5-.4-.745-.3-.5-.46-.738-.33-.476-.506-.7-.36-.453-.55-.669-.388-.428-.592-.632-.415-.4-.632-.592-.44-.374-.669-.55-.467-.346-.7-.506-.489-.315-.738-.46-.494-.275-.745-.4-.512-.243-.772-.352-.529-.211-.8-.3-.546-.177-.822-.252-.561-.143-.843-.2-.575-.106-.864-.145-.588-.069-.882-.088a13.569,13.569,0,0,0-1.8,0c-.294.02-.591.049-.882.088s-.58.088-.864.145-.566.124-.844.2a.833.833,0,1,1-.437-1.608c.313-.085.633-.161.951-.225s.647-.12.972-.163.662-.078.992-.1a15.3,15.3,0,0,1,2.02,0c.331.022.665.056.993.1s.653.1.973.163.637.14.95.225.622.18.926.284.606.219.9.342.586.256.87.4.564.291.839.45.561.337.831.518.535.371.793.569.511.406.753.619.483.438.71.666.453.468.666.711.422.5.619.753.389.524.569.793.356.551.518.831.31.556.45.839.275.579.4.87.237.6.342.9.2.617.284.926.161.633.225.95.12.649.163.973.078.661.1.992.034.674.034,1.01-.011.676-.034,1.01-.056.664-.1.992-.1.654-.164.973-.14.639-.225.95-.18.621-.284.926-.218.6-.342.9-.255.584-.4.87-.292.567-.45.839-.336.56-.517.831-.372.536-.569.793-.406.51-.619.753-.437.481-.666.71-.467.452-.711.666-.5.421-.753.619-.525.39-.793.569-.55.355-.831.518-.557.31-.839.45-.577.274-.87.4-.6.238-.9.342-.616.2-.926.284-.633.161-.95.225-.648.12-.973.163-.661.077-.992.1-.674.034-1.01.034" transform="translate(-146.376 -27.871)" fill="#e87a67"/>
  <path id="Path_74230" data-name="Path 74230" d="M203.85,74.357c-.275,0-.553-.009-.825-.027s-.543-.045-.811-.081-.533-.08-.795-.133-.52-.114-.777-.184-.509-.147-.757-.232-.494-.179-.735-.279-.478-.209-.711-.324-.462-.238-.686-.368-.458-.275-.679-.423-.438-.3-.648-.465-.417-.331-.615-.505-.394-.357-.581-.544-.371-.383-.544-.581-.345-.406-.506-.616-.318-.427-.465-.648-.289-.448-.423-.679-.253-.454-.368-.686-.224-.472-.324-.711-.2-.49-.279-.735-.163-.5-.232-.756-.131-.516-.184-.777-.1-.529-.134-.794-.063-.542-.081-.812-.027-.551-.027-.825.009-.552.027-.825.045-.542.081-.811.081-.534.134-.8.115-.522.184-.777.148-.51.233-.757.178-.492.279-.735.209-.479.324-.711.239-.463.368-.686.276-.46.423-.679.3-.438.465-.648.331-.417.506-.616.357-.393.544-.581.382-.37.581-.544.406-.344.616-.506.428-.318.648-.465.449-.29.679-.423.456-.253.686-.367.473-.225.711-.324.487-.194.735-.279.5-.164.757-.233.517-.131.777-.184.53-.1.795-.133.541-.063.811-.081a12.463,12.463,0,0,1,1.651,0c.27.018.543.045.811.081s.533.08.795.133.521.114.777.184.509.147.757.233.495.179.735.279.479.209.711.324.461.238.686.367.459.275.679.423.438.3.648.465.416.331.615.506.394.357.581.545.37.382.544.581.345.406.506.616.319.43.465.648.29.449.423.679.253.455.368.686.224.472.324.711a.833.833,0,1,1-1.537.642c-.086-.206-.18-.413-.28-.614s-.206-.4-.317-.592-.238-.4-.365-.586-.262-.377-.4-.56-.286-.36-.437-.532-.309-.34-.47-.5-.33-.319-.5-.47-.351-.3-.532-.437-.37-.275-.56-.4-.388-.25-.586-.365-.393-.219-.591-.317-.407-.194-.614-.28-.42-.168-.634-.241-.434-.141-.653-.2-.446-.114-.67-.159-.457-.085-.686-.115-.467-.055-.7-.07a10.731,10.731,0,0,0-1.429,0c-.234.016-.469.039-.7.07s-.46.069-.686.115-.449.1-.67.159-.438.127-.652.2-.427.154-.634.241-.412.18-.614.28-.4.205-.592.317-.4.238-.586.365-.379.263-.56.4-.361.286-.532.437-.34.308-.5.47-.32.33-.47.5-.3.351-.437.532-.274.37-.4.56-.25.386-.365.586-.218.392-.317.592-.194.407-.28.613-.168.422-.241.633-.141.433-.2.653-.113.444-.158.669-.085.457-.115.687-.055.467-.07.7-.024.477-.024.715.008.478.024.714.039.468.07.7.07.46.115.686.1.451.159.67.127.439.2.652.154.425.241.634.18.413.28.613.206.4.317.591.238.4.365.586.263.379.4.56.286.36.437.532.308.34.47.5.33.319.5.47.35.3.532.437.37.275.56.4.388.25.586.365.392.219.592.317.408.194.613.28.421.168.634.241.434.141.653.2.446.113.67.159.457.085.686.115.467.055.7.07a10.728,10.728,0,0,0,1.428,0c.234-.016.469-.039.7-.07s.46-.07.686-.115.449-.1.67-.159.439-.127.653-.2.426-.154.634-.241a.833.833,0,1,1,.642,1.537c-.241.1-.488.195-.735.279s-.5.163-.757.232-.517.131-.777.184-.529.1-.795.133-.541.063-.811.081-.55.027-.825.027" transform="translate(-160.311 -41.805)" fill="#fbc835"/>
  <path id="Path_74231" data-name="Path 74231" d="M217.784,85.567a.833.833,0,1,1,0-1.666c.176,0,.355-.006.529-.018s.348-.029.52-.052.341-.052.508-.085.333-.073.5-.118.325-.094.483-.148.316-.114.469-.178.306-.134.455-.207.3-.152.438-.235.293-.176.435-.271.28-.194.414-.3.267-.212.394-.324.253-.229.372-.349.236-.244.349-.372.22-.26.323-.394.2-.274.3-.415.186-.288.271-.434.161-.29.235-.439.144-.3.207-.454.124-.312.178-.469.1-.32.149-.484.084-.33.118-.5.063-.34.085-.508.041-.347.052-.52.018-.353.018-.529-.006-.355-.018-.529-.029-.347-.052-.52-.051-.34-.085-.509-.073-.333-.118-.5-.094-.326-.148-.483-.114-.316-.178-.47-.133-.3-.208-.455-.152-.3-.235-.438-.176-.292-.271-.435-.194-.28-.3-.414-.212-.266-.324-.394-.23-.253-.348-.372-.245-.237-.372-.349-.259-.22-.394-.323-.274-.2-.415-.3-.288-.186-.435-.271-.291-.162-.438-.235-.3-.143-.454-.207-.312-.124-.469-.178-.321-.1-.484-.149-.331-.084-.5-.117-.338-.062-.509-.085-.346-.04-.519-.052a8,8,0,0,0-1.059,0c-.173.012-.348.029-.52.052s-.341.052-.508.085-.333.073-.5.118-.325.094-.483.148-.316.114-.47.178-.306.134-.455.207-.3.152-.438.235-.293.176-.434.271-.28.194-.415.3-.268.213-.394.324-.253.229-.372.349-.236.244-.349.372-.221.26-.323.394-.2.274-.3.414-.186.288-.271.434-.161.29-.235.439-.144.3-.207.454-.124.312-.178.469-.1.322-.148.484-.084.33-.118.5-.063.34-.085.508-.041.347-.052.52-.018.355-.018.529.006.353.018.53.029.347.052.519.051.34.085.509.073.333.118.5.094.324.148.484.114.315.178.469.133.3.208.455a.833.833,0,0,1-1.493.739c-.09-.182-.175-.368-.252-.552s-.151-.379-.217-.571-.127-.391-.18-.587-.1-.4-.143-.6-.076-.413-.1-.617-.049-.42-.063-.63-.021-.43-.021-.641.007-.426.021-.64.035-.422.063-.63.062-.412.1-.617.089-.406.143-.6.114-.394.18-.587.139-.383.217-.571.162-.37.252-.552.186-.361.286-.533.213-.355.328-.527.235-.34.361-.5.257-.323.392-.478.279-.307.423-.451.3-.287.451-.422.314-.267.478-.393.333-.247.5-.361.348-.225.527-.328.353-.2.532-.285.366-.174.552-.252.379-.151.571-.217.39-.127.587-.18.4-.1.6-.143.411-.076.617-.1.42-.049.63-.063a9.675,9.675,0,0,1,1.281,0c.21.014.421.035.63.063s.414.062.617.1.4.089.6.143.4.114.588.181.384.139.571.217.371.162.552.252.359.185.532.285.355.213.527.328.34.236.5.361.323.257.478.393.306.278.451.422.286.3.422.451.268.316.393.478.247.332.361.5.226.35.328.527.2.352.285.532.175.368.252.553.151.379.217.571.126.389.18.587.1.4.143.6.076.413.1.618.049.42.063.629.021.427.021.641-.007.429-.021.641-.035.421-.063.63-.062.412-.1.617-.089.406-.143.6-.115.4-.181.588-.139.383-.217.57-.162.37-.252.552-.186.36-.286.532-.213.355-.328.527-.236.341-.362.5-.257.323-.392.478-.279.307-.423.451-.3.287-.451.422-.315.268-.478.393-.332.247-.5.361-.349.225-.527.328-.353.2-.532.286-.367.174-.552.252-.379.151-.571.217-.39.127-.587.18-.4.1-.6.143-.411.076-.617.1-.42.049-.63.063-.427.021-.641.021" transform="translate(-174.245 -55.74)" fill="#40b8a2"/>
  <path id="Path_74232" data-name="Path 74232" d="M463.1,90.938c0,2.155-1.449,3.718-4.443,3.718H453.3V81.117h4.71c2.784,0,4.4,1.087,4.4,3.3a3.175,3.175,0,0,1-2,3.07V87.5a3.333,3.333,0,0,1,2.689,3.433M455.6,86.723H457.8c1.144,0,2.269-.515,2.269-1.792,0-1.068-.725-1.773-2.5-1.755H455.6Zm5.091,3.966c0-1.2-.915-1.983-2.689-1.983h-2.4V92.6h2.365c1.621-.019,2.727-.629,2.727-1.907" transform="translate(-379.147 -67.848)" fill="#fff"/>
  <path id="Path_74233" data-name="Path 74233" d="M528.576,106.314v9.306h-2.04v-1.239H526.5a3.519,3.519,0,0,1-2.956,1.392,4.441,4.441,0,0,1-4.5-4.767,4.529,4.529,0,0,1,4.481-4.824,3.641,3.641,0,0,1,2.88,1.259h.038v-1.125Zm-2.04,4.71a2.726,2.726,0,0,0-2.651-2.918,2.686,2.686,0,0,0-2.67,2.918,2.62,2.62,0,0,0,2.67,2.8,2.66,2.66,0,0,0,2.651-2.8" transform="translate(-434.139 -88.812)" fill="#fff"/>
  <path id="Path_74234" data-name="Path 74234" d="M595,110.146v5.473h-2.136V110.7c0-1.964-.744-2.593-2.021-2.593-1.449,0-2.4,1.011-2.4,2.841v4.672H586.3v-9.306h2.136v1.3h.019a4.04,4.04,0,0,1,3.127-1.43c2.04,0,3.413,1.163,3.413,3.966" transform="translate(-490.399 -88.812)" fill="#fff"/>
  <path id="Path_74235" data-name="Path 74235" d="M653.851,106.217v8.352c0,2.822-1.3,4.863-4.748,4.863a7.487,7.487,0,0,1-3.795-.972l.515-1.869a6.108,6.108,0,0,0,3.165.915c1.831,0,2.765-1.049,2.765-2.288v-.991h-.019a3.863,3.863,0,0,1-2.841,1.144,4.656,4.656,0,0,1-.114-9.306,4.062,4.062,0,0,1,2.9,1.144h.038v-.992Zm-2.04,4.462a2.642,2.642,0,1,0-2.631,2.727,2.58,2.58,0,0,0,2.631-2.727" transform="translate(-538.955 -88.715)" fill="#fff"/>
  <path id="Path_74236" data-name="Path 74236" d="M720.1,106.314v9.306h-2.041v-1.239h-.038a3.519,3.519,0,0,1-2.956,1.392,4.44,4.44,0,0,1-4.5-4.767,4.529,4.529,0,0,1,4.481-4.824,3.641,3.641,0,0,1,2.88,1.259h.038v-1.125Zm-2.041,4.71a2.726,2.726,0,0,0-2.651-2.918,2.686,2.686,0,0,0-2.669,2.918,2.62,2.62,0,0,0,2.669,2.8,2.66,2.66,0,0,0,2.651-2.8" transform="translate(-594.337 -88.812)" fill="#fff"/>
  <rect id="Rectangle_14099" data-name="Rectangle 14099" width="2.136" height="14.035" transform="translate(127.367 12.773)" fill="#fff"/>
  <path id="Path_74237" data-name="Path 74237" d="M798.694,110.985a4.883,4.883,0,1,1,4.881,4.786,4.646,4.646,0,0,1-4.881-4.786m7.589,0a2.711,2.711,0,1,0-2.708,2.841,2.7,2.7,0,0,0,2.708-2.841" transform="translate(-668.048 -88.812)" fill="#fff"/>
  <path id="Path_74238" data-name="Path 74238" d="M869.877,106.18v2.384c-.248-.019-.5-.038-.648-.038a2.463,2.463,0,0,0-2.536,2.689v4.4h-2.136v-9.306h2.136v1.411h.019a3.579,3.579,0,0,1,2.9-1.545Z" transform="translate(-723.137 -88.812)" fill="#fff"/>
  <path id="Path_74239" data-name="Path 74239" d="M907.248,111.711H900.46a2.568,2.568,0,0,0,2.651,2.117,2.9,2.9,0,0,0,2.326-1.087l1.487,1.278A4.785,4.785,0,0,1,903,115.773a4.58,4.58,0,0,1-4.748-4.805,4.486,4.486,0,0,1,4.538-4.786,4.375,4.375,0,0,1,4.519,4.672,7.894,7.894,0,0,1-.057.858m-6.75-1.716h4.653a2.227,2.227,0,0,0-2.25-1.888,2.354,2.354,0,0,0-2.4,1.888" transform="translate(-751.317 -88.812)" fill="#fff"/>
  <rect id="Rectangle_14100" data-name="Rectangle 14100" width="155.988" height="40.727" fill="none"/>
</svg>
