<svg xmlns="http://www.w3.org/2000/svg" width="196.307" height="51.254" viewBox="0 0 196.307 51.254">
  <g id="Group_50074" data-name="Group 50074" transform="translate(-866 -1987)">
    <path id="Path_74226" data-name="Path 74226" d="M27.08,56.426H2.882V37.709H22.039a1.441,1.441,0,0,0,0-2.882H2.882V16.035H25.643a1.441,1.441,0,1,0,0-2.882H1.441A1.441,1.441,0,0,0,0,14.594V57.867a1.441,1.441,0,0,0,1.441,1.441H27.08a1.441,1.441,0,1,0,0-2.882" transform="translate(866 1976.555)" fill="#fff"/>
    <path id="Path_74227" data-name="Path 74227" d="M167.308,51.254c-.578,0-1.162-.019-1.736-.058s-1.142-.1-1.706-.171-1.121-.169-1.671-.281-1.1-.24-1.633-.387-1.068-.309-1.591-.489-1.039-.376-1.545-.587-1.006-.439-1.5-.682-.971-.5-1.441-.773-.964-.579-1.428-.89-.921-.639-1.363-.978-.876-.7-1.294-1.063-.83-.753-1.221-1.145-.779-.8-1.144-1.221-.725-.854-1.063-1.294-.67-.9-.978-1.363-.611-.946-.89-1.428-.532-.955-.773-1.441-.472-.992-.682-1.495-.409-1.027-.587-1.545-.344-1.057-.489-1.59-.276-1.086-.386-1.633-.206-1.112-.281-1.671-.133-1.137-.171-1.706-.058-1.158-.058-1.736.019-1.162.058-1.736.1-1.142.171-1.705.169-1.121.281-1.672.24-1.093.386-1.632.309-1.069.489-1.591.377-1.04.587-1.545.44-1.007.682-1.495.5-.971.773-1.442.578-.962.89-1.428.637-.92.978-1.363.7-.875,1.063-1.294.751-.828,1.144-1.221.8-.777,1.221-1.144.853-.725,1.294-1.063.9-.669,1.363-.978.945-.61,1.428-.889.955-.532,1.441-.773.992-.472,1.5-.682,1.026-.409,1.545-.587,1.058-.344,1.59-.488,1.087-.276,1.633-.387S163.308.3,163.866.229,165,.1,165.572.058a26.2,26.2,0,0,1,3.473,0c.569.038,1.142.1,1.706.171s1.12.169,1.671.281,1.095.24,1.633.387,1.068.309,1.591.489,1.038.375,1.545.587a1.048,1.048,0,0,1-.808,1.935c-.465-.194-.942-.376-1.418-.539s-.97-.316-1.46-.449-1-.253-1.5-.355-1.022-.189-1.534-.258-1.044-.122-1.567-.157a24.085,24.085,0,0,0-3.193,0c-.523.035-1.05.088-1.567.157s-1.029.155-1.534.258-1,.22-1.5.355-.98.284-1.46.448-.953.345-1.417.539-.923.4-1.372.626-.891.46-1.323.71-.885.531-1.311.816-.846.587-1.252.9-.805.64-1.189.977-.761.691-1.121,1.051-.715.739-1.051,1.122-.666.785-.977,1.189-.615.829-.9,1.252-.561.869-.816,1.311-.488.877-.71,1.323-.433.91-.626,1.372-.375.94-.539,1.418-.315.97-.448,1.459-.254,1-.354,1.5-.189,1.021-.258,1.534-.122,1.044-.157,1.567-.053,1.065-.053,1.6.018,1.069.053,1.6.088,1.05.157,1.567.155,1.029.258,1.534.221,1.007.354,1.5.284.98.449,1.46.344.952.539,1.417.4.923.626,1.372.46.892.71,1.323.53.884.816,1.311.586.845.9,1.252.639.8.977,1.189.689.76,1.051,1.122.737.714,1.122,1.051.784.665,1.189.977.827.614,1.252.9.868.56,1.311.817.878.488,1.323.71.91.433,1.372.626.941.375,1.417.539.97.316,1.46.449,1,.253,1.5.355,1.021.189,1.534.258,1.044.122,1.567.157a24.121,24.121,0,0,0,3.193,0c.522-.035,1.05-.088,1.567-.157s1.029-.156,1.534-.258,1.006-.221,1.5-.355.98-.284,1.46-.448.952-.344,1.418-.539.923-.4,1.372-.626.891-.46,1.323-.71.885-.531,1.311-.816.846-.587,1.252-.9.8-.639,1.189-.977.761-.691,1.122-1.051.714-.738,1.051-1.122.665-.783.977-1.189.614-.826.9-1.252.561-.868.816-1.311.488-.877.71-1.323.433-.91.626-1.372.376-.942.539-1.417.316-.971.449-1.46.254-1,.354-1.5.189-1.021.258-1.534.122-1.044.157-1.567.053-1.065.053-1.6-.018-1.069-.053-1.6-.088-1.049-.157-1.567-.155-1.029-.258-1.534-.22-1-.355-1.5-.283-.979-.448-1.46-.345-.955-.539-1.417-.4-.924-.626-1.372a1.048,1.048,0,1,1,1.878-.931c.242.488.472.991.682,1.5s.408,1.024.587,1.545.344,1.059.489,1.591.276,1.087.387,1.633.206,1.112.281,1.671.133,1.137.171,1.705.058,1.158.058,1.736-.02,1.162-.058,1.736-.1,1.142-.171,1.706-.169,1.121-.281,1.672-.24,1.093-.386,1.632-.309,1.068-.489,1.591-.376,1.038-.588,1.545-.439,1.006-.682,1.495-.5.972-.773,1.442-.578.962-.889,1.428-.639.922-.978,1.363-.7.877-1.063,1.294-.752.829-1.144,1.221-.8.777-1.221,1.144-.855.726-1.295,1.064-.9.669-1.363.978-.945.61-1.428.889-.956.532-1.441.773-.992.472-1.495.682-1.027.409-1.545.587-1.058.344-1.591.489-1.086.276-1.633.386-1.112.206-1.671.281-1.138.133-1.706.171-1.158.058-1.736.058" transform="translate(753.485 1987)" fill="#fff"/>
    <path id="Path_74228" data-name="Path 74228" d="M180.538,61.055a1.048,1.048,0,0,1,0-2.1c.454,0,.913-.015,1.364-.045s.9-.075,1.338-.134.879-.133,1.311-.22.859-.189,1.28-.3.838-.243,1.247-.383.814-.295,1.211-.46.789-.344,1.172-.534.762-.393,1.13-.606.756-.454,1.12-.7.723-.5,1.069-.767.687-.546,1.015-.834.651-.59.959-.9.61-.631.9-.958.568-.669.834-1.015.524-.706.767-1.069.477-.739.7-1.12.416-.748.606-1.13.369-.776.535-1.172.321-.806.46-1.21.269-.828.383-1.247.216-.85.3-1.28.161-.871.22-1.311.1-.893.134-1.338.046-.91.046-1.364-.015-.913-.046-1.364-.075-.9-.134-1.339-.133-.878-.22-1.311-.188-.858-.3-1.28-.243-.838-.383-1.247-.295-.814-.46-1.211-.345-.788-.535-1.172-.393-.762-.606-1.13-.455-.758-.7-1.12-.5-.723-.767-1.069-.547-.688-.834-1.015-.59-.65-.9-.958-.63-.61-.958-.9-.67-.569-1.015-.834-.707-.525-1.07-.768-.741-.479-1.12-.7-.75-.417-1.13-.606-.778-.37-1.172-.535-.8-.321-1.211-.46-.829-.27-1.247-.383-.852-.216-1.28-.3-.873-.161-1.311-.22-.892-.1-1.338-.134a20.587,20.587,0,0,0-2.728,0c-.446.03-.9.075-1.339.134s-.879.133-1.31.22-.859.189-1.28.3-.837.242-1.247.383-.814.294-1.211.46-.789.345-1.172.535-.761.393-1.131.606-.756.453-1.12.7-.722.5-1.069.768-.687.546-1.015.834-.651.591-.958.9-.61.63-.9.958-.568.669-.834,1.015-.524.706-.767,1.069-.479.741-.7,1.12-.417.749-.606,1.13-.369.776-.535,1.172-.32.8-.46,1.211-.269.828-.383,1.247-.217.853-.3,1.28-.161.871-.22,1.311-.1.892-.134,1.339-.046.91-.046,1.364.015.913.046,1.364.075.9.134,1.338.133.881.22,1.31.188.858.3,1.281.243.839.383,1.247.295.814.46,1.211.346.791.535,1.172a1.048,1.048,0,0,1-1.878.932c-.209-.421-.408-.857-.591-1.3s-.354-.888-.509-1.338-.3-.915-.423-1.378-.24-.943-.335-1.415-.178-.962-.243-1.447-.115-.984-.148-1.477-.05-1-.05-1.5.017-1.006.05-1.5.083-.991.148-1.478.147-.973.243-1.448.208-.947.335-1.414.269-.927.424-1.378.325-.9.509-1.338.382-.874.591-1.3.434-.841.669-1.248.5-.835.77-1.237.554-.8.847-1.181.6-.759.921-1.121.651-.718.991-1.058.695-.673,1.057-.991.74-.628,1.121-.921.78-.579,1.181-.847.819-.529,1.237-.77.828-.461,1.249-.669.859-.408,1.295-.591.888-.354,1.338-.508.916-.3,1.378-.423.941-.239,1.414-.335.964-.178,1.448-.243.986-.115,1.477-.148a22.7,22.7,0,0,1,3.008,0c.492.033.989.083,1.477.148s.971.147,1.448.243.949.208,1.414.335.925.268,1.378.423.9.325,1.338.508.872.381,1.3.591.84.434,1.249.669.834.5,1.237.77.8.553,1.181.848.759.6,1.121.921.718.652,1.058.991.674.7.991,1.058.628.739.921,1.121.579.78.848,1.181.527.816.77,1.237.46.827.67,1.249.409.859.591,1.295.354.888.509,1.338.3.915.423,1.378.24.943.335,1.415.178.964.243,1.447.115.986.148,1.478.05,1,.05,1.5-.017,1.007-.05,1.5-.083.989-.148,1.477-.147.973-.243,1.448-.209.95-.335,1.414-.268.927-.423,1.378-.324.9-.509,1.338-.382.874-.591,1.3-.434.841-.669,1.248-.5.837-.77,1.237-.554.8-.848,1.181-.6.76-.921,1.121-.651.718-.991,1.058-.7.674-1.058.991-.74.628-1.121.921-.78.579-1.181.847-.819.529-1.237.771-.827.46-1.249.669-.859.409-1.3.591-.888.354-1.338.508-.915.3-1.378.423-.941.239-1.415.335-.965.178-1.448.243-.984.115-1.477.148-1,.05-1.5.05" transform="translate(740.254 1973.769)" fill="#dd0063"/>
    <path id="Path_74229" data-name="Path 74229" d="M193.769,70.856c-.423,0-.851-.014-1.271-.042s-.837-.07-1.249-.125-.82-.124-1.224-.205-.8-.176-1.2-.283-.782-.226-1.165-.358-.762-.275-1.132-.43-.736-.322-1.095-.5-.711-.367-1.056-.566-.709-.425-1.046-.652-.675-.468-1-.716-.64-.509-.948-.779-.607-.551-.894-.838-.57-.589-.838-.895-.53-.625-.779-.948-.488-.657-.716-1-.448-.694-.652-1.046-.388-.7-.566-1.056-.346-.729-.5-1.1-.3-.75-.43-1.131-.252-.776-.358-1.166-.2-.8-.283-1.2-.151-.817-.205-1.224-.1-.832-.126-1.249S175,52.51,175,52.088s.014-.85.042-1.271.07-.837.126-1.25.123-.818.205-1.224.176-.8.283-1.2a1.048,1.048,0,0,1,2.024.55c-.1.35-.18.707-.251,1.062s-.134.726-.183,1.087-.087.74-.111,1.111-.037.755-.037,1.131.013.757.037,1.132.062.743.111,1.11.11.727.183,1.087.156.711.251,1.062.2.694.318,1.034.245.676.381,1,.285.653.443.972.326.633.5.937.376.626.579.929.417.6.636.886.453.571.692.842.489.539.745.8.522.506.795.745.557.473.842.692.585.435.887.637.613.4.929.579.621.346.937.5.646.307.972.443.666.266,1,.382.688.224,1.034.318.706.18,1.062.251.724.134,1.087.182.74.086,1.11.111a17.074,17.074,0,0,0,2.263,0c.371-.025.744-.062,1.11-.111s.729-.11,1.087-.182.712-.156,1.062-.251.694-.2,1.034-.318.676-.244,1-.382.655-.286.972-.443.632-.326.938-.5.627-.377.929-.578.6-.415.887-.637.57-.453.842-.692.54-.49.8-.745.507-.523.745-.795.472-.555.692-.842.436-.586.637-.887.4-.616.578-.929.345-.62.5-.938.307-.646.443-.972.266-.668.381-1,.224-.688.318-1.034.179-.7.251-1.062.134-.722.183-1.087.087-.741.111-1.11.038-.755.038-1.131-.013-.757-.038-1.131-.062-.744-.111-1.11-.11-.727-.183-1.087-.156-.712-.251-1.062-.2-.694-.318-1.034-.245-.677-.381-1-.285-.653-.443-.972-.326-.631-.5-.937-.375-.626-.578-.929-.415-.6-.637-.887-.453-.57-.692-.842-.489-.539-.745-.8-.522-.505-.795-.745-.554-.471-.842-.692-.587-.436-.887-.636-.615-.4-.929-.579-.622-.346-.938-.5-.644-.306-.972-.443-.666-.266-1-.382-.687-.223-1.034-.318-.706-.18-1.061-.251-.723-.134-1.087-.183-.74-.086-1.11-.111a17.075,17.075,0,0,0-2.263,0c-.37.025-.743.062-1.11.111s-.73.11-1.087.183-.712.156-1.062.251a1.048,1.048,0,1,1-.55-2.024c.394-.107.8-.2,1.2-.283s.814-.15,1.224-.205.833-.1,1.249-.125a19.259,19.259,0,0,1,2.542,0c.416.028.836.07,1.249.125s.821.124,1.224.205.8.176,1.2.283.783.227,1.165.358.763.276,1.132.43.738.322,1.095.5.71.366,1.055.566.706.424,1.046.651.673.467,1,.716.643.511.948.779.608.551.894.838.57.589.838.894.531.625.779.948.49.66.716,1,.448.694.651,1.046.39.7.566,1.055.346.729.5,1.1.3.749.43,1.131.252.776.358,1.166.2.8.283,1.2.151.817.205,1.224.1.832.126,1.249.042.848.042,1.271-.014.851-.042,1.271-.07.836-.125,1.249-.124.823-.206,1.225-.176.8-.283,1.2-.226.781-.358,1.165-.275.76-.43,1.131-.321.735-.5,1.095-.368.713-.566,1.056-.423.7-.651,1.046-.468.675-.717,1-.51.642-.779.948-.55.606-.838.894-.588.569-.894.838-.624.53-.948.779-.661.49-1,.717-.692.446-1.046.651-.7.39-1.056.566-.726.345-1.1.5-.75.3-1.131.43-.775.252-1.165.358-.8.2-1.2.283-.815.151-1.224.205-.832.1-1.249.125-.848.042-1.271.042" transform="translate(727.023 1960.538)" fill="#e87a67"/>
    <path id="Path_74230" data-name="Path 74230" d="M207,80.657c-.346,0-.7-.012-1.039-.035s-.683-.057-1.02-.1-.671-.1-1-.168-.655-.144-.977-.231-.64-.185-.952-.293-.622-.225-.925-.352-.6-.263-.895-.408-.581-.3-.863-.463-.577-.346-.855-.533-.551-.382-.816-.586-.525-.417-.774-.636-.5-.45-.731-.685-.466-.482-.685-.731-.434-.511-.637-.775-.4-.538-.585-.816-.364-.563-.532-.855-.318-.571-.463-.863-.282-.594-.408-.895-.246-.617-.352-.925-.205-.631-.293-.951-.165-.65-.231-.978-.123-.665-.168-1-.079-.683-.1-1.021-.034-.693-.034-1.038.012-.695.034-1.039.057-.682.1-1.021.1-.672.168-1,.144-.658.231-.978.186-.641.293-.952.224-.619.351-.924.263-.6.408-.9.3-.582.463-.863.348-.579.532-.855.382-.552.585-.815.417-.524.636-.775.449-.495.684-.731.481-.466.731-.685.51-.433.775-.636.539-.4.816-.586.565-.365.855-.533.573-.319.863-.462.595-.283.895-.408.613-.244.924-.351.633-.206.952-.293.651-.165.978-.231.667-.124,1-.168.68-.08,1.021-.1a15.683,15.683,0,0,1,2.077,0c.34.023.684.057,1.021.1s.67.1,1,.168.656.144.977.231.64.185.952.293.622.225.925.352.6.263.895.408.58.3.863.462.577.347.855.533.551.382.816.585.524.417.774.636.5.45.731.685.465.48.684.731.434.511.637.775.4.541.586.816.365.565.532.854.318.572.463.863.282.594.408.895a1.048,1.048,0,1,1-1.935.808c-.108-.26-.227-.52-.352-.772s-.259-.5-.4-.745-.3-.5-.459-.738-.329-.475-.506-.7-.36-.453-.55-.669-.389-.428-.592-.631-.415-.4-.631-.591-.442-.375-.669-.55-.466-.346-.7-.506-.488-.315-.738-.46-.494-.275-.744-.4-.512-.244-.772-.352-.529-.211-.8-.3-.546-.177-.821-.252-.561-.143-.843-.2-.575-.106-.863-.145-.588-.069-.882-.088a13.5,13.5,0,0,0-1.8,0c-.294.02-.591.049-.882.088s-.579.087-.863.145-.565.124-.843.2-.551.16-.821.252-.537.194-.8.3-.519.227-.772.352-.5.258-.745.4-.5.3-.738.46-.476.33-.7.506-.454.36-.669.55-.428.388-.631.592-.4.416-.591.631-.375.441-.55.669-.345.465-.506.7-.314.486-.46.738-.275.493-.4.745-.244.512-.352.772-.212.531-.3.8-.177.545-.253.822-.142.559-.2.842-.106.575-.145.864-.069.588-.088.881-.03.6-.03.9.01.6.03.9.049.59.088.882.088.579.145.863.125.567.2.843.16.553.252.821.193.534.3.8.227.519.352.772.259.5.4.744.3.5.46.738.331.477.506.7.36.453.55.669.388.428.592.632.415.4.631.592.441.374.669.55.466.346.7.506.488.315.738.459.494.275.745.4.513.244.772.352.53.211.8.3.546.177.822.252.561.143.843.2.575.106.864.145.588.069.882.088a13.5,13.5,0,0,0,1.8,0c.294-.02.591-.049.882-.088s.578-.087.863-.145.565-.124.843-.2.552-.16.821-.252.536-.194.8-.3a1.048,1.048,0,1,1,.808,1.935c-.3.127-.614.245-.925.352s-.632.206-.952.293-.651.165-.978.231-.666.123-1,.168-.681.079-1.021.1-.693.035-1.039.035" transform="translate(713.792 1947.308)" fill="#fbc835"/>
    <path id="Path_74231" data-name="Path 74231" d="M220.23,90.458a1.048,1.048,0,1,1,0-2.1c.222,0,.446-.007.666-.022s.437-.036.654-.065.429-.065.64-.107.419-.092.625-.148.409-.118.608-.187.4-.144.591-.225.385-.168.572-.261.371-.192.552-.3.369-.222.547-.341.352-.244.521-.374.336-.267.5-.407.318-.288.468-.439.3-.307.439-.468.277-.327.407-.5.256-.345.375-.522.234-.363.34-.547.2-.365.3-.552.181-.38.261-.571.157-.393.225-.591.131-.4.187-.609.106-.415.148-.625.079-.427.107-.639.051-.436.066-.654.022-.444.022-.666-.007-.446-.022-.666-.037-.437-.066-.654-.064-.428-.107-.64-.092-.419-.148-.624-.119-.41-.187-.608-.143-.4-.225-.592-.168-.383-.261-.572-.192-.372-.3-.552-.221-.368-.34-.547-.245-.353-.375-.522-.267-.335-.407-.5-.289-.318-.438-.468-.308-.3-.468-.439-.326-.277-.5-.407-.345-.257-.522-.375-.362-.234-.547-.341-.366-.2-.551-.3-.379-.18-.572-.261-.392-.156-.591-.225-.4-.132-.609-.187-.416-.106-.625-.148-.426-.079-.64-.107-.436-.051-.653-.065a10.068,10.068,0,0,0-1.333,0c-.218.015-.438.037-.654.065s-.429.065-.64.107-.419.092-.625.148-.409.118-.608.187-.4.144-.591.225-.385.168-.572.261-.372.192-.551.3-.369.222-.547.341-.352.244-.522.375-.337.268-.5.407-.318.288-.468.439-.3.307-.439.468-.277.327-.407.5-.256.345-.374.521-.234.363-.341.547-.2.365-.3.553-.181.38-.261.571-.157.393-.225.591-.132.405-.187.609-.106.415-.148.625-.079.427-.107.639-.051.436-.066.654-.022.447-.022.666.007.444.022.667.037.436.066.653.064.428.107.64.092.418.148.624.118.408.187.609.143.4.224.591.168.384.261.572a1.048,1.048,0,0,1-1.879.93c-.113-.229-.22-.463-.317-.695s-.19-.478-.273-.718-.16-.492-.227-.739-.128-.5-.18-.759-.1-.52-.13-.777-.062-.529-.08-.792-.027-.541-.027-.806.009-.536.027-.806.044-.531.08-.793.078-.519.13-.776.112-.51.18-.76.144-.5.227-.739.175-.482.273-.718.2-.466.317-.695.234-.454.36-.671.268-.447.413-.663.3-.427.455-.633.323-.407.494-.6.351-.386.532-.568.373-.361.567-.532.4-.336.6-.494.419-.311.634-.455.438-.283.663-.413.444-.247.67-.359.461-.219.695-.317.477-.19.718-.273.491-.16.739-.227.506-.128.759-.18.518-.1.777-.13.529-.062.793-.079a12.175,12.175,0,0,1,1.612,0c.264.018.53.044.792.079s.521.079.777.13.508.112.759.18.5.144.739.227.483.175.718.273.468.2.695.317.451.233.67.359.447.269.663.413.428.3.634.455.407.323.6.494.385.349.567.532.36.372.532.567.337.4.494.6.31.418.455.633.284.44.413.663.247.443.359.67.22.463.317.7.19.478.273.718.159.489.227.739.128.5.18.759.1.52.13.777.062.529.08.792.027.538.027.806-.009.54-.027.806-.044.53-.08.792-.078.518-.13.776-.112.51-.18.76-.145.5-.227.74-.174.481-.273.717-.2.466-.317.695-.234.453-.359.67-.268.447-.413.663-.3.429-.455.634-.323.407-.494.6-.351.387-.532.568-.373.361-.567.532-.4.337-.6.494-.418.311-.633.455-.439.284-.664.413-.444.247-.67.359-.462.219-.695.317-.477.19-.718.273-.491.16-.739.227-.506.129-.759.18-.517.1-.776.131-.529.062-.793.079-.537.027-.806.027" transform="translate(700.563 1934.077)" fill="#40b8a2"/>
    <path id="Path_74232" data-name="Path 74232" d="M465.63,93.476c0,2.711-1.824,4.679-5.591,4.679H453.3V81.117h5.928c3.5,0,5.543,1.368,5.543,4.151a4,4,0,0,1-2.52,3.864v.024a4.194,4.194,0,0,1,3.383,4.32m-9.431-5.3h2.76c1.44,0,2.856-.648,2.856-2.256,0-1.344-.912-2.232-3.144-2.208H456.2Zm6.407,4.992c0-1.512-1.152-2.5-3.384-2.5H456.2v4.9h2.976c2.04-.024,3.432-.792,3.432-2.4" transform="translate(506.017 1922.581)" fill="#fff"/>
    <path id="Path_74233" data-name="Path 74233" d="M531.04,106.349V118.06h-2.568V116.5h-.048a4.429,4.429,0,0,1-3.72,1.752c-3.24,0-5.663-2.376-5.663-6,0-3.528,2.424-6.071,5.639-6.071a4.582,4.582,0,0,1,3.624,1.584h.048v-1.416Zm-2.568,5.928a3.431,3.431,0,0,0-3.336-3.672,3.381,3.381,0,0,0-3.36,3.672,3.3,3.3,0,0,0,3.36,3.528,3.347,3.347,0,0,0,3.336-3.528" transform="translate(453.806 1902.677)" fill="#fff"/>
    <path id="Path_74234" data-name="Path 74234" d="M597.246,111.172v6.887h-2.688v-6.191c0-2.472-.936-3.264-2.543-3.264-1.824,0-3.024,1.272-3.024,3.576v5.879H586.3V106.348h2.688v1.632h.024a5.084,5.084,0,0,1,3.935-1.8c2.568,0,4.3,1.464,4.3,4.992" transform="translate(400.39 1902.678)" fill="#fff"/>
    <path id="Path_74235" data-name="Path 74235" d="M656.306,106.256v10.511c0,3.552-1.632,6.12-5.976,6.12a9.422,9.422,0,0,1-4.776-1.224l.648-2.352a7.687,7.687,0,0,0,3.983,1.152c2.3,0,3.479-1.32,3.479-2.88v-1.248h-.024a4.861,4.861,0,0,1-3.576,1.44,5.513,5.513,0,0,1-5.711-5.783c0-3.432,2.328-5.928,5.568-5.928a5.112,5.112,0,0,1,3.648,1.44h.048v-1.248Zm-2.568,5.615a3.325,3.325,0,1,0-3.312,3.431,3.246,3.246,0,0,0,3.312-3.431" transform="translate(354.288 1902.77)" fill="#fff"/>
    <path id="Path_74236" data-name="Path 74236" d="M722.567,106.349V118.06H720V116.5h-.048a4.429,4.429,0,0,1-3.72,1.752c-3.24,0-5.663-2.376-5.663-6,0-3.528,2.424-6.071,5.639-6.071a4.582,4.582,0,0,1,3.624,1.584h.048v-1.416ZM720,112.277a3.43,3.43,0,0,0-3.336-3.672,3.381,3.381,0,0,0-3.359,3.672,3.3,3.3,0,0,0,3.359,3.528A3.347,3.347,0,0,0,720,112.277" transform="translate(301.705 1902.677)" fill="#fff"/>
    <rect id="Rectangle_14099" data-name="Rectangle 14099" width="2.688" height="17.662" transform="translate(1026.287 2003.074)" fill="#fff"/>
    <path id="Path_74237" data-name="Path 74237" d="M798.694,112.228a6.145,6.145,0,1,1,6.143,6.023,5.847,5.847,0,0,1-6.143-6.023m9.551,0a3.412,3.412,0,1,0-3.408,3.575,3.4,3.4,0,0,0,3.408-3.575" transform="translate(231.72 1902.678)" fill="#fff"/>
    <path id="Path_74238" data-name="Path 74238" d="M871.252,106.18v3c-.312-.024-.624-.048-.816-.048a3.1,3.1,0,0,0-3.192,3.383v5.543h-2.688V106.348h2.688v1.776h.024a4.5,4.5,0,0,1,3.648-1.944Z" transform="translate(179.415 1902.678)" fill="#fff"/>
    <path id="Path_74239" data-name="Path 74239" d="M909.575,113.14h-8.543a3.231,3.231,0,0,0,3.336,2.664,3.647,3.647,0,0,0,2.928-1.368l1.872,1.608a6.022,6.022,0,0,1-4.944,2.208,5.764,5.764,0,0,1-5.975-6.047c0-3.6,2.448-6.023,5.711-6.023a5.506,5.506,0,0,1,5.688,5.879,9.936,9.936,0,0,1-.072,1.08m-8.5-2.16h5.855A2.8,2.8,0,0,0,904.1,108.6a2.962,2.962,0,0,0-3.023,2.376" transform="translate(152.66 1902.677)" fill="#fff"/>
    <rect id="Rectangle_14100" data-name="Rectangle 14100" width="196.306" height="51.254" transform="translate(866 1987)" fill="none"/>
  </g>
</svg>
