<svg xmlns="http://www.w3.org/2000/svg" width="44.81" height="45.311" viewBox="0 0 44.81 45.311">
  <g id="Group_50086" data-name="Group 50086" transform="translate(-0.328 -0.219)">
    <g id="Group_50087" data-name="Group 50087" transform="translate(1.216 1.405)">
      <path id="Path_130808" data-name="Path 130808" d="M7.632,30.925,2.754,35.044A2.124,2.124,0,0,0,2,36.667V57.905A4.092,4.092,0,0,0,6.092,62H40.718a4.093,4.093,0,0,0,4.093-4.093V36.667a2.124,2.124,0,0,0-.754-1.623l-4.856-4.1" transform="translate(-1.888 -18.872)" fill="none" stroke="#ffc220" stroke-linejoin="round" stroke-width="2"/>
      <path id="Path_130809" data-name="Path 130809" d="M50.031,7.545,44.608,2.966a4.092,4.092,0,0,0-5.28,0l-5.5,4.647" transform="translate(-20.45 -2)" fill="none" stroke="#ffc220" stroke-linejoin="round" stroke-width="2"/>
      <path id="Path_130810" data-name="Path 130810" d="M1.731,45.212,18.684,58a8.061,8.061,0,0,0,9.816-.083l16.265-12.7" transform="translate(-1.731 -27.206)" fill="none" stroke="#ffc220" stroke-linejoin="round" stroke-width="2"/>
      <path id="Path_130811" data-name="Path 130811" d="M16.094,33.381V16.274H46.954V33.381" transform="translate(-10.109 -10.326)" fill="none" stroke="#ffc220" stroke-linejoin="round" stroke-width="2"/>
      <path id="Path_130812" data-name="Path 130812" d="M50.731,36.5a6.917,6.917,0,1,1-6.917-6.917A6.917,6.917,0,0,1,50.731,36.5Z" transform="translate(-22.243 -18.088)" fill="none" stroke="#ffc220" stroke-linejoin="round" stroke-width="2"/>
      <path id="Path_130813" data-name="Path 130813" d="M52.365,42.22a2.829,2.829,0,1,1-2.829-2.829A2.829,2.829,0,0,1,52.365,42.22Z" transform="translate(-27.966 -23.81)" fill="none" stroke="#ffc220" stroke-linejoin="round" stroke-width="2"/>
      <path id="Path_130814" data-name="Path 130814" d="M60.286,38.38v3.9a3.027,3.027,0,0,0,3.027,3.027" transform="translate(-35.886 -23.221)" fill="none" stroke="#ffc220" stroke-linejoin="round" stroke-width="2"/>
    </g>
  </g>
</svg>
