<svg xmlns="http://www.w3.org/2000/svg" width="40.665" height="56.243" viewBox="0 0 40.665 56.243">
  <g id="Group_50089" data-name="Group 50089" transform="translate(-0.151 -0.152)">
    <g id="Group_50090" data-name="Group 50090" transform="translate(1.151 1.152)">
      <path id="Path_130815" data-name="Path 130815" d="M40.041,18.7a17.2,17.2,0,1,0-33.3,6.046A28.463,28.463,0,0,0,8.378,28.4a79.994,79.994,0,0,0,9.635,13.948c1.591,1.922,3.244,3.793,4.968,5.8,1.736-2.033,3.37-3.886,4.937-5.794A78.819,78.819,0,0,0,37.7,28.083a17.558,17.558,0,0,0,2.327-7.217c.017-.453.012-.906-.01-1.357C40.033,19.24,40.041,18.97,40.041,18.7Zm-17.2,5.669a6.206,6.206,0,1,1,6.205-6.205A6.205,6.205,0,0,1,22.844,24.368Z" transform="translate(-3.659 -1.501)" fill="none" stroke="#ffc220" stroke-width="2"/>
      <path id="Path_130816" data-name="Path 130816" d="M29.094,90.168c6.544.988,11.071,3.114,11.071,5.578,0,3.407-8.655,6.168-19.332,6.168S1.5,99.153,1.5,95.746c0-2.374,4.206-4.436,10.37-5.466" transform="translate(-1.5 -47.671)" fill="none" stroke="#ffc220" stroke-width="2"/>
    </g>
  </g>
</svg>
